<?xml version="1.0" standalone="no"?>
<!DOCTYPE svg PUBLIC "-//W3C//DTD SVG 20010904//EN"
 "http://www.w3.org/TR/2001/REC-SVG-20010904/DTD/svg10.dtd">
<svg version="1.0" xmlns="http://www.w3.org/2000/svg"
 width="700.000000pt" height="700.000000pt" viewBox="0 0 700.000000 700.000000"
 preserveAspectRatio="xMidYMid meet">
<metadata>
Created by potrace 1.11, written by Peter Selinger 2001-2013
</metadata>
<g transform="translate(0.000000,700.000000) scale(0.100000,-0.100000)"
fill="#000000" stroke="none">
<path d="M0 3500 l0 -3500 3500 0 3500 0 0 3500 0 3500 -3500 0 -3500 0 0
-3500z m2642 3079 c166 -56 290 -186 345 -364 17 -56 18 -110 18 -790 0 -590
-3 -741 -14 -785 -49 -195 -204 -350 -392 -395 -246 -58 -501 65 -605 290 -43
93 -56 172 -52 330 l3 130 203 79 c111 44 199 83 195 87 -5 4 -96 41 -203 82
l-195 76 -3 398 c-3 443 2 487 60 605 42 84 145 185 229 227 129 63 279 75
411 30z m1921 16 c171 -36 319 -164 390 -336 22 -54 22 -56 25 -808 2 -522 -1
-771 -8 -808 -29 -136 -141 -284 -266 -350 -168 -89 -387 -81 -539 21 -114 76
-199 197 -230 327 -9 41 -15 115 -15 206 l0 142 28 14 c15 7 107 44 205 82 97
38 174 72 170 76 -5 4 -96 41 -203 82 l-195 75 -3 399 c-2 264 1 418 8 458 38
204 206 375 410 419 85 19 140 19 223 1z m-2445 -3297 c-3 -154 -6 -178 -25
-214 -34 -63 -66 -97 -125 -129 -49 -28 -61 -30 -153 -30 -93 0 -104 2 -155
31 -118 66 -150 145 -150 366 l0 148 306 0 306 0 -4 -172z m870 3 c-3 -164 -4
-170 -33 -227 -55 -108 -163 -162 -300 -151 -90 7 -154 36 -205 95 -58 65 -70
117 -70 299 l0 153 306 0 306 0 -4 -169z m862 2 c0 -155 -2 -172 -24 -218 -28
-62 -77 -111 -136 -139 -36 -16 -64 -20 -140 -20 -111 0 -147 13 -214 74 -72
67 -86 117 -86 310 l0 160 300 0 300 0 0 -167z m809 -1 c-4 -164 -5 -170 -34
-227 -56 -109 -162 -163 -301 -152 -112 8 -194 59 -242 151 -26 49 -27 59 -30
224 l-4 172 307 0 307 0 -3 -168z m801 15 c0 -182 -12 -234 -70 -299 -51 -59
-115 -88 -205 -95 -137 -11 -245 43 -300 151 -29 57 -30 63 -33 227 l-4 169
306 0 306 0 0 -153z"/>
</g>
</svg>
